<svg xmlns="http://www.w3.org/2000/svg" width="160.391" height="196.854" viewBox="0 0 160.391 196.854">
    <defs>
        <style>
            .prefix__cls-5{fill:#a7b6dd}.prefix__cls-6{fill:#f0f3ff}.prefix__cls-9{fill:#3267b4}.prefix__cls-10{fill:#95b9ed}.prefix__cls-12{fill:#6595db}
        </style>
    </defs>
    <g id="prefix__imagenSinElementos" transform="translate(-1121.616 -416.147)">
        <g id="prefix__Group_3834" data-name="Group 3834" transform="translate(1152 430.854)">
            <path id="prefix__Path_3822" d="M104.017 192.533l-48 27.712c-2.523 1.456-2.523 3.819 0 5.275l48 27.712a10.1 10.1 0 0 0 9.135 0l48-27.712c2.523-1.456 2.523-3.819 0-5.275l-48-27.712a10.1 10.1 0 0 0-9.135 0z" data-name="Path 3822" transform="translate(-59.127 -92.482)" style="fill:#e9fffb;opacity:.999"/>
            <path id="prefix__Path_3823" d="M104.017 204.082l-48 27.712c-2.523 1.456-2.523 3.817 0 5.275l48 27.712a10.1 10.1 0 0 0 9.135 0l48-27.712c2.523-1.458 2.523-3.819 0-5.275l-48-27.712a10.1 10.1 0 0 0-9.135 0z" data-name="Path 3823" transform="translate(-57.127 -83.726)" style="fill:#9dc3f2;opacity:.254;mix-blend-mode:multiply;isolation:isolate"/>
            <path id="prefix__Path_3824" d="M104.017 192.533l-48 27.712c-2.523 1.456-2.523 3.819 0 5.275l48 27.712a10.1 10.1 0 0 0 9.135 0l48-27.712c2.523-1.456 2.523-3.819 0-5.275l-48-27.712a10.1 10.1 0 0 0-9.135 0z" data-name="Path 3824" transform="translate(-57.127 -92.482)" style="fill:none;stroke:#eef7ff;stroke-miterlimit:10"/>
            <g id="prefix__Group_2073" data-name="Group 2073">
                <path id="prefix__Path_4644" d="M163.045 250.455v-65.62l-49.9-30.71a9.446 9.446 0 0 0-4.571-1.09 9.328 9.328 0 0 0-4.554 1.09c-39.5 24.248-49.9 30.924-49.9 30.924l.006 65.406 54.45-29.8" data-name="Path 4644" transform="translate(-59.126 -152.601)" style="stroke:transparent;fill:#6fa3ed"/>
                <g id="prefix__Group_3835" data-name="Group 3835" transform="translate(67.068 32.39)">
                    <path id="prefix__Path_3828" d="M95.117 197.373v-18.25c0-1.952 1.371-2.743 3.042-1.776l.527.316 15.3 8.826a6.174 6.174 0 0 1 2.163 2.286l-20.113 11.6a6.1 6.1 0 0 1-.919-3.002z" class="prefix__cls-5" data-name="Path 3828" transform="translate(-95.117 -176.935)"/>
                    <path id="prefix__Path_3829" d="M116.63 190.861l-.018.6c.018 1.934-1.354 2.725-3.042 1.758l-.281-.158-15.507-8.951a6.128 6.128 0 0 1-2.145-2.286l20.113-11.6a6.025 6.025 0 0 1 .879 2.971z" class="prefix__cls-5" data-name="Path 3829" transform="translate(-94.723 -158.38)"/>
                    <path id="prefix__Path_3830" d="M113.7 184.786a5.936 5.936 0 0 0-.9-2.989 6.264 6.264 0 0 0-2.145-2.286l-15.314-8.826-.229-.141v17.6a6.906 6.906 0 0 0 3.059 5.292l15.507 8.949z" class="prefix__cls-6" data-name="Path 3830" transform="translate(-95.117 -167.706)"/>
                </g>
                <g id="prefix__Group_3836" data-name="Group 3836" transform="translate(9.927 32.39)">
                    <path id="prefix__Path_3831" d="M84.145 197.373v-18.25c0-1.952-1.371-2.743-3.042-1.776l-.527.316-15.3 8.826a6.174 6.174 0 0 0-2.163 2.286l20.113 11.6a6.1 6.1 0 0 0 .919-3.002z" data-name="Path 3831" transform="translate(-62.237 -176.935)" style="fill:#6386bf"/>
                    <path id="prefix__Path_3832" d="M62.617 190.861l.018.6c-.018 1.934 1.354 2.725 3.042 1.758l.281-.158 15.507-8.949a6.128 6.128 0 0 0 2.145-2.286L63.5 170.22a6.025 6.025 0 0 0-.879 2.971z" class="prefix__cls-5" data-name="Path 3832" transform="translate(-62.617 -158.38)"/>
                    <path id="prefix__Path_3833" d="M64.507 184.786a5.936 5.936 0 0 1 .9-2.989 6.264 6.264 0 0 1 2.145-2.286l15.314-8.826.229-.141v17.6a6.906 6.906 0 0 1-3.059 5.292l-15.507 8.949z" class="prefix__cls-6" data-name="Path 3833" transform="translate(-61.184 -167.706)"/>
                </g>
            </g>
            <g id="prefix__Group_3837" data-name="Group 3837">
                <path id="prefix__Path_4644-2" d="M163.045 250.455v-65.62l-49.9-30.71a9.446 9.446 0 0 0-4.571-1.09 9.328 9.328 0 0 0-4.554 1.09c-39.5 24.248-49.9 30.924-49.9 30.924l.006 65.406 54.45-29.8" data-name="Path 4644" transform="translate(-59.126 -152.601)" style="fill:#6ba1ef;stroke:transparent"/>
                <g id="prefix__Group_3835-2" data-name="Group 3835" transform="translate(67.068 32.39)">
                    <path id="prefix__Path_3829-2" d="M116.63 190.861l-.018.6c.018 1.934-1.354 2.725-3.042 1.758l-.281-.158-15.507-8.951a6.128 6.128 0 0 1-2.145-2.286l20.113-11.6a6.025 6.025 0 0 1 .879 2.971z" class="prefix__cls-5" data-name="Path 3829" transform="translate(-94.723 -158.38)"/>
                </g>
                <g id="prefix__Group_3841" data-name="Group 3841" transform="translate(54.938 27.649)">
                    <path id="prefix__Path_3828-2" d="M116.145 179.941v18.25c0 1.952-1.371 2.743-3.042 1.776l-.527-.316-15.3-8.826a6.174 6.174 0 0 1-2.163-2.286l20.113-11.6a6.1 6.1 0 0 1 .919 3.002z" class="prefix__cls-9" data-name="Path 3828" transform="translate(-87.237 -165.129)"/>
                    <path id="prefix__Path_3829-3" d="M95.638 172.989l.018-.6c-.018-1.934 1.354-2.725 3.042-1.758l.281.158 15.507 8.949a6.128 6.128 0 0 1 2.145 2.286l-20.113 11.6a6.025 6.025 0 0 1-.879-2.971z" class="prefix__cls-9" data-name="Path 3829" transform="translate(-88.637 -170.22)"/>
                    <path id="prefix__Path_3830-2" d="M95.118 188.144a5.936 5.936 0 0 0 .9 2.989 6.264 6.264 0 0 0 2.145 2.286l15.313 8.826.229.141v-17.6a6.906 6.906 0 0 0-3.059-5.292l-15.507-8.949z" class="prefix__cls-10" data-name="Path 3830" transform="translate(-84.794 -169.974)"/>
                </g>
            </g>
        </g>
        <path id="prefix__Path_4646" d="M108.577 250.455l-.475-65.288 28.5-17.913 1.7-1.061c9.663-6.034 18.516-11.5 19.754-12.072a9.828 9.828 0 0 1 4.991-1.087v67.619" data-name="Path 4646" transform="translate(1038.874 278.253)" style="opacity:.977;fill:#1f6ad5;stroke:transparent"/>
        <g id="prefix__Group_3840" data-name="Group 3840" transform="translate(1166.938 458.503)">
            <path id="prefix__Path_3828-3" d="M95.117 179.941v18.25c0 1.952 1.371 2.743 3.042 1.776l.527-.316 15.3-8.826a6.174 6.174 0 0 0 2.163-2.286l-20.113-11.6a6.1 6.1 0 0 0-.919 3.002z" class="prefix__cls-9" data-name="Path 3828" transform="translate(-95.117 -165.129)"/>
            <path id="prefix__Path_3829-4" d="M116.629 172.989l-.018-.6c.018-1.934-1.354-2.725-3.042-1.758l-.281.158-15.506 8.951a6.128 6.128 0 0 0-2.145 2.286l20.113 11.6a6.025 6.025 0 0 0 .879-2.971z" class="prefix__cls-9" data-name="Path 3829" transform="translate(-94.723 -170.22)"/>
            <path id="prefix__Path_3830-3" d="M113.7 188.144a5.936 5.936 0 0 1-.9 2.989 6.264 6.264 0 0 1-2.145 2.286l-15.313 8.826-.229.141v-17.6a6.906 6.906 0 0 1 3.059-5.292l15.507-8.949z" class="prefix__cls-12" data-name="Path 3830" transform="translate(-95.117 -169.974)"/>
        </g>
        <g id="prefix__Group_3838" data-name="Group 3838" transform="translate(1146.994 464.288)">
            <path id="prefix__Path_4644-3" d="M54.121 153.035v65.62l49.9 30.71a9.446 9.446 0 0 0 4.571 1.09 9.328 9.328 0 0 0 4.554-1.09c39.5-24.248 49.9-30.924 49.9-30.924l-.006-65.406-54.45 29.8" data-name="Path 4644" transform="translate(-54.121 -153.035)" style="fill:#5b99f0;stroke:transparent"/>
            <g id="prefix__Group_3835-3" data-name="Group 3835" transform="translate(14.944 30.215)">
                <path id="prefix__Path_3828-4" d="M116.145 179.941v18.25c0 1.952-1.371 2.743-3.042 1.776l-.527-.316-15.3-8.826a6.174 6.174 0 0 1-2.163-2.286l20.113-11.6a6.1 6.1 0 0 1 .919 3.002z" class="prefix__cls-9" data-name="Path 3828" transform="translate(-94.237 -165.129)"/>
                <path id="prefix__Path_3829-5" d="M95.638 172.989l.018-.6c-.018-1.934 1.354-2.725 3.042-1.758l.281.158 15.507 8.949a6.128 6.128 0 0 1 2.145 2.286l-20.113 11.6a6.025 6.025 0 0 1-.879-2.971z" class="prefix__cls-9" data-name="Path 3829" transform="translate(-95.637 -170.22)"/>
                <path id="prefix__Path_3830-4" d="M95.118 188.144a5.936 5.936 0 0 0 .9 2.989 6.264 6.264 0 0 0 2.145 2.286l15.314 8.826.229.141v-17.6a6.906 6.906 0 0 0-3.059-5.292l-15.507-8.949z" class="prefix__cls-10" data-name="Path 3830" transform="translate(-91.794 -169.974)"/>
            </g>
        </g>
        <path id="prefix__Path_4647" d="M162.57 153.011l.475 65.288-28.5 17.912-1.7 1.061c-9.663 6.034-18.516 11.5-19.754 12.072a9.828 9.828 0 0 1-4.991 1.087v-67.619" data-name="Path 4647" transform="translate(1092.874 311.253)" style="fill:#2f6cc3;opacity:.5;stroke:transparent"/>
        <g id="prefix__Group_3839" data-name="Group 3839" transform="translate(1219.079 493.503)">
            <path id="prefix__Path_3831-2" d="M63.117 179.941v18.25c0 1.952 1.371 2.743 3.042 1.776l.527-.316 15.3-8.826a6.174 6.174 0 0 0 2.163-2.286l-20.113-11.6a6.1 6.1 0 0 0-.919 3.002z" class="prefix__cls-9" data-name="Path 3831" transform="translate(-63.117 -165.129)"/>
            <path id="prefix__Path_3832-2" d="M83.609 172.989l-.018-.6c.018-1.934-1.354-2.725-3.042-1.758l-.281.158-15.506 8.951a6.128 6.128 0 0 0-2.145 2.286l20.113 11.6a6.025 6.025 0 0 0 .879-2.971z" class="prefix__cls-9" data-name="Path 3832" transform="translate(-61.702 -170.22)"/>
            <path id="prefix__Path_3833-2" d="M83.09 188.144a5.936 5.936 0 0 1-.9 2.989 6.264 6.264 0 0 1-2.145 2.286l-15.314 8.826-.229.141v-17.6a6.906 6.906 0 0 1 3.059-5.292l15.507-8.949z" class="prefix__cls-12" data-name="Path 3833" transform="translate(-64.507 -169.974)"/>
        </g>
        <path id="prefix__Path_4650" d="M24.387 44.417L1.771 31.93c-2.362-1.364-2.362-3.576 0-4.942L47.789.832a9.448 9.448 0 0 1 8.552 0l22.868 12.414z" data-name="Path 4650" transform="rotate(-180 642.043 248.512)" style="fill:#1f6ad5"/>
        <path id="prefix__Path_4653" d="M24.387 0L1.771 12.487c-2.362 1.364-2.362 3.576 0 4.942l46.018 26.156a9.448 9.448 0 0 0 8.552 0l22.868-12.413z" data-name="Path 4653" transform="translate(1121.661 463.529)" style="fill:#6ba1ef"/>
        <path id="prefix__Path_4654" d="M24-.726L1.771 12.487c-2.362 1.364-2.362 3.576 0 4.942l46.018 26.156a9.448 9.448 0 0 0 8.552 0L80 30.078z" data-name="Path 4654" transform="rotate(-178 644.273 220.73)" style="fill:#5b99f0"/>
        <path id="prefix__Path_4655" d="M24.949 47.178L1.771 32.121c-2.362-1.364-2.362-3.576 0-4.942L47.789 1.023a9.448 9.448 0 0 1 8.552 0l23.727 12.515z" data-name="Path 4655" transform="translate(1122.44 416.147)" style="fill:#4482d9"/>
    </g>
</svg>
